<?xml version="1.0" encoding="utf-8"?>
<!DOCTYPE svg PUBLIC "-//W3C//DTD SVG 1.1//EN" "http://www.w3.org/Graphics/SVG/1.1/DTD/svg11.dtd">
<svg version="1.1" id="Layer_1" xmlns="http://www.w3.org/2000/svg" xmlns:xlink="http://www.w3.org/1999/xlink" x="0px" y="0px"
	 viewBox="0 0 274 180" enable-background="new 0 0 274 180" xml:space="preserve">
<g>
	<g>
		<path fill="#555" d="M132,23.8c26.1,4,48.9,12.2,64.9,22.6l-5.4,3.7c-9.7-4.8-21.2-8.7-33.8-11.4c-21.4-4.6-41.7-4.2-56.7,0.1
			c13.5-1.8,29.6-1.2,46.3,2.4c14.1,3,26.9,7.8,37.4,13.4l-92.2,62.1l96.9-59.4c17.2,10.5,26.9,23.8,24.1,35.8
			c-1.5,6.3-6.3,11.6-13.5,15.5c4.4-1.4,8.4-3.3,11.6-5.4c13.7-7.5,22.2-17.5,22.9-28.9c0.8-11.7-6.6-23-19.7-32.5l21.7-13.3
			c2.2,1.5,4.4,1.6,4.4,1.6L258.4,10l-25.4,7.6c0,0-0.7,2.1-0.3,4.6L209.3,38c-18.2-11.4-44.8-19.6-74.8-21.8
			c-34-2.5-64.7,3.3-84.3,14.3C70.3,21.9,100.1,19,132,23.8z M221,76.6c-3.4-8.6-12-16.9-24.3-23.8l5-3.1
			C212.8,57.9,219.7,67.2,221,76.6z M17.5,163.2h-3.8v0.1c0,0.7-0.2,1.1-0.6,1.3c-0.4,0.2-1.2,0.4-2.3,0.4H8.5c-1.2,0-2-0.2-2.4-0.5
			c-0.4-0.3-0.6-1-0.6-1.9V161c0-1,0.2-1.7,0.6-2c0.4-0.3,1.2-0.5,2.5-0.5h3c0.7,0,1.2,0.1,1.5,0.3c0.3,0.2,0.5,0.6,0.5,1.1v0.1h3.8
			c0-0.1,0-0.2,0-0.3c0-0.1,0-0.2,0-0.4c0-0.8-0.1-1.4-0.3-1.9c-0.2-0.5-0.5-0.9-0.9-1.2c-0.4-0.3-0.9-0.5-1.5-0.6
			c-0.6-0.1-1.6-0.2-3-0.2H7.5c-2.2,0-3.7,0.3-4.6,1c-0.8,0.7-1.3,1.9-1.3,3.7v3.4c0,0.9,0.1,1.6,0.3,2.2c0.2,0.6,0.6,1.1,1.1,1.5
			c0.4,0.3,0.9,0.6,1.6,0.7c0.6,0.1,1.6,0.2,2.9,0.2h4.2c1.3,0,2.3-0.1,3-0.2c0.7-0.1,1.2-0.3,1.6-0.6c0.4-0.3,0.7-0.7,0.9-1.2
			c0.2-0.5,0.3-1.2,0.3-2C17.5,163.9,17.5,163.7,17.5,163.2C17.5,163.3,17.5,163.2,17.5,163.2z M44,156.3c-0.4-0.3-1-0.5-1.7-0.7
			c-0.7-0.1-1.7-0.2-3.2-0.2h-4.4c-1.4,0-2.4,0.1-3.1,0.2c-0.7,0.1-1.2,0.4-1.7,0.7c-0.5,0.4-0.8,0.8-1,1.4
			c-0.2,0.6-0.3,1.4-0.3,2.5v3.4c0,1,0.1,1.7,0.3,2.3c0.2,0.6,0.6,1,1,1.4c0.4,0.3,1,0.5,1.6,0.7c0.7,0.1,1.7,0.2,3.2,0.2h4.4
			c1.4,0,2.5-0.1,3.2-0.2c0.7-0.1,1.2-0.3,1.6-0.7c0.5-0.4,0.8-0.8,1-1.4c0.2-0.6,0.3-1.4,0.3-2.3v-3.5c0-0.9-0.1-1.7-0.3-2.3
			C44.8,157.1,44.5,156.6,44,156.3z M41.5,162.7c0,0.9-0.2,1.5-0.7,1.9c-0.4,0.3-1.3,0.5-2.6,0.5h-2.4c-1.3,0-2.2-0.2-2.7-0.5
			c-0.4-0.3-0.7-1-0.7-1.9V161c0-1,0.2-1.6,0.6-1.9c0.4-0.3,1.3-0.5,2.7-0.5h2.4c1.3,0,2.2,0.2,2.6,0.5c0.4,0.3,0.7,1,0.7,1.9V162.7
			z M71.6,164.7l-7.4-9.1h-5.6V168h3.8v-9l7.4,9h5.5v-12.4h-3.8V164.7z M101.3,160.3l-6.2-0.1c-0.6,0-0.9-0.1-1.2-0.3
			c-0.2-0.2-0.3-0.4-0.3-0.8c0-0.4,0.1-0.6,0.3-0.8c0.2-0.1,0.7-0.2,1.4-0.2h4.3c0.4,0,0.7,0.1,0.9,0.3c0.2,0.2,0.3,0.5,0.3,0.9v0.1
			h3.6c0-0.2,0-0.3,0-0.4v-0.3c0-1.2-0.3-2-0.9-2.5c-0.6-0.5-1.7-0.8-3.1-0.8h-5.7c-1.3,0-2.3,0.1-2.8,0.2c-0.6,0.1-1.1,0.4-1.4,0.7
			c-0.3,0.3-0.5,0.7-0.7,1.2c-0.1,0.5-0.2,1-0.2,1.8c0,1.4,0.3,2.3,0.8,2.9c0.5,0.5,1.5,0.8,3,0.9l5.9,0.1c0.8,0.1,1.3,0.2,1.5,0.3
			c0.2,0.2,0.4,0.4,0.4,0.8c0,0.4-0.1,0.6-0.3,0.8c-0.2,0.2-0.5,0.2-1,0.2h-4.7c-0.7,0-1.2-0.1-1.4-0.2c-0.2-0.2-0.3-0.5-0.3-1v-0.2
			l-3.7,0c0,0.2,0,0.5,0,0.6c0,0.2,0,0.3,0,0.4c0,1.3,0.3,2.1,1,2.6c0.7,0.5,2.1,0.7,4.1,0.7h5c1.1,0,1.9,0,2.5-0.1
			c0.6-0.1,1-0.2,1.4-0.5c0.5-0.3,0.9-0.7,1.1-1.2c0.2-0.5,0.3-1.1,0.3-2c0-1.5-0.3-2.5-0.9-3.1
			C103.8,160.7,102.8,160.3,101.3,160.3z M131.4,163c0,0.8-0.2,1.4-0.5,1.7c-0.4,0.3-1.1,0.5-2.1,0.5h-2.1c-1.3,0-2.1-0.1-2.5-0.4
			c-0.4-0.3-0.6-0.9-0.6-1.7v-7.4h-3.8v8.6c0,1.5,0.4,2.6,1.3,3.1c0.9,0.6,2.4,0.9,4.7,0.9h4.2c1.9,0,3.3-0.3,4.1-0.9
			c0.8-0.6,1.2-1.6,1.2-3.1v-8.6h-3.8V163z M154.6,155.6h-3.8V168h12v-3h-8.2V155.6z M173.7,158.6h5.2v9.4h3.8v-9.4h5.2v-3.1h-14.1
			V158.6z M201.4,168h3.8v-12.4h-3.8V168z M236.7,164.7l-7.4-9.1h-5.6V168h3.8v-9l7.4,9h5.5v-12.4h-3.8V164.7z M263,163.4h4.4v0
			c0,0.2,0,0.3,0,0.3c0,0.5-0.2,0.8-0.6,1c-0.4,0.2-1.2,0.3-2.2,0.3h-2.2c-1.2,0-2-0.2-2.4-0.5c-0.4-0.3-0.6-1-0.6-1.8V161
			c0-1,0.2-1.7,0.5-2c0.4-0.3,1.2-0.5,2.5-0.5h2.2c1.2,0,2,0.1,2.3,0.3c0.3,0.2,0.5,0.6,0.5,1.2v0h3.8c0-0.1,0-0.2,0-0.3v-0.4
			c0-0.8-0.1-1.4-0.3-1.9c-0.2-0.5-0.5-0.9-0.9-1.2c-0.4-0.3-0.9-0.5-1.5-0.6c-0.6-0.1-1.7-0.2-3-0.2h-4.2c-2.2,0-3.7,0.3-4.6,1.1
			c-0.8,0.7-1.3,2-1.3,3.7v3.4c0,0.9,0.1,1.6,0.3,2.2c0.2,0.6,0.6,1.1,1.1,1.5c0.4,0.3,0.9,0.6,1.6,0.7c0.6,0.1,1.6,0.2,2.8,0.2h4.2
			c2.1,0,3.6-0.2,4.5-0.7c0.9-0.5,1.3-1.3,1.3-2.5v-4.1H263V163.4z M1.7,148.8h269.7v-1.3H1.7V148.8z M4.2,140.4
			c1.4,0.6,3.2,0.9,5.3,0.9h13c2,0,4.1-0.3,6.4-1c2.2-0.7,3.5-1.4,3.7-2.2h-22l1.2-3.3h13.2c5.8,0,9.2-1.1,10-3.4l1.2-3.3
			c0-0.2,0.1-0.3,0.1-0.4c0-0.8-0.7-1.6-2.2-2.2c-1.5-0.6-3.3-0.9-5.4-0.9H15.7c-1.9,0-3.8,0.3-5.6,0.8c-2.6,0.7-4.2,1.7-4.7,3.1
			l-3.2,8.8c-0.1,0.3-0.1,0.5-0.1,0.7C2.1,139,2.8,139.8,4.2,140.4z M14.3,128.1h13l-1.3,3.6h-13L14.3,128.1z M60.3,139.1l3.8-2.6
			l3.3,4.8h9.8l-6.3-8.5l12.4-8.2h-9.8l-6.6,4.6l-3.8-4.6h-9.3l5.9,8.2l-12.8,8.5h7.7C56.2,141.3,58.1,140.6,60.3,139.1z M129,128.5
			l0.1-0.3c0-0.2,0.1-0.3,0.1-0.5c0-2-2.6-3-7.7-3h-12.9c-6,0-9.5,1.4-10.5,4.1l-2.9,8c-0.2,0.5-0.3,1-0.3,1.3
			c0,2.2,2.5,3.3,7.5,3.3h13c2.5,0,4.8-0.3,6.7-1c2-0.7,3.1-1.6,3.4-2.6l1-2.9c-5.5,0-8.9,1.1-10.2,3.3h-13l3.6-10.1h13.1l-1.2,3.5
			C124.5,131.6,127.9,130.5,129,128.5z M166.1,134.8c5.8,0,9.2-1.1,10-3.4l1.2-3.3c0-0.2,0.1-0.3,0.1-0.4c0-0.8-0.8-1.6-2.2-2.2
			c-1.5-0.6-3.3-0.9-5.4-0.9h-13.1c-1.9,0-3.8,0.3-5.6,0.8c-2.6,0.7-4.1,1.7-4.7,3.1l-3.2,8.8c-0.1,0.3-0.1,0.5-0.1,0.7
			c0,1,0.7,1.8,2.2,2.4c1.4,0.6,3.2,0.9,5.3,0.9h13c2,0,4.1-0.3,6.4-1c2.2-0.7,3.5-1.4,3.7-2.2h-22l1.2-3.3H166.1z M155.3,128.1h13
			l-1.3,3.6h-13L155.3,128.1z M188.5,141.3c3.2,0,5.6-0.3,7.1-0.8c1.5-0.5,2.5-1.4,3-2.7l7.3-20H197L188.5,141.3z M213.2,141.3
			c3.2,0,5.6-0.3,7.1-0.8c1.5-0.5,2.5-1.4,3-2.7l7.3-20h-8.8L213.2,141.3z M272.2,125.5c-1.2-0.6-2.8-0.9-4.9-0.9h-20.7l-0.1,0.3
			c-0.5,2.1,1.3,3.1,5.4,3.1h13.1l-1.2,3.5h-13.9c-2.6,0-4.4,0.2-5.6,0.5c-2,0.6-3.3,1.9-4,3.7l-0.4,1.3c-0.2,0.5-0.3,0.9-0.3,1.3
			c0,2,2.4,3,7.2,3h22.4l4.7-13.2c0.1-0.2,0.1-0.3,0.1-0.5C274,126.8,273.4,126.1,272.2,125.5z M261.4,138.1h-13l1.2-3.3h13
			L261.4,138.1z"/>
	</g>
</g>
</svg>

