<svg id="Layer_1" data-name="Layer 1" xmlns="http://www.w3.org/2000/svg" xmlns:xlink="http://www.w3.org/1999/xlink" viewBox="0 0 295.13 207.34"><defs><style>.cls-1,.cls-18,.cls-2{fill:none;stroke:#484b50;stroke-linecap:round;stroke-linejoin:round;}.cls-1{stroke-width:1.37px;}.cls-2{stroke-width:2.75px;}.cls-3{fill:#5d6349;}.cls-4{fill:#9d9e8d;}.cls-5{fill:#626d49;}.cls-6{fill:#2d3a1a;}.cls-7{fill:#929480;}.cls-8{fill:#3b4b30;}.cls-9{fill:#4c583f;}.cls-10{fill:#626c55;}.cls-11{fill:#263b1e;}.cls-12{fill:#253a1c;}.cls-13,.cls-14{fill:#868b79;}.cls-13{fill-rule:evenodd;}.cls-15{fill:#48563e;}.cls-16{fill:#bebebd;}.cls-17{fill:#fff;}.cls-18{stroke-width:2.8px;}.cls-19{fill:#484b51;}.cls-20{fill:#6d6e71;}.cls-21{fill:#bcbec0;}.cls-22{fill:#231f20;}.cls-23{fill:url(#linear-gradient);}.cls-24{fill:#acaeb1;}.cls-25{fill:url(#linear-gradient-2);}.cls-26{fill:url(#linear-gradient-3);}.cls-27{fill:url(#linear-gradient-4);}.cls-28{fill:#414042;}.cls-29{fill:url(#linear-gradient-5);}.cls-30{fill:url(#linear-gradient-6);}</style><linearGradient id="linear-gradient" x1="133.46" y1="202.46" x2="139.94" y2="202.46" gradientUnits="userSpaceOnUse"><stop offset="0" stop-color="#010101" stop-opacity="0.1"/><stop offset="0.99" stop-color="#010101" stop-opacity="0.1"/></linearGradient><linearGradient id="linear-gradient-2" x1="132.02" y1="203.19" x2="139.94" y2="203.19" gradientUnits="userSpaceOnUse"><stop offset="0" stop-color="#fff" stop-opacity="0.3"/><stop offset="0.98" stop-color="#fff" stop-opacity="0.3"/></linearGradient><linearGradient id="linear-gradient-3" x1="141.29" y1="199.43" x2="149.96" y2="199.43" xlink:href="#linear-gradient"/><linearGradient id="linear-gradient-4" x1="142.23" y1="201.38" x2="149.35" y2="201.38" xlink:href="#linear-gradient-2"/><linearGradient id="linear-gradient-5" x1="127.91" y1="200.44" x2="131.64" y2="200.44" xlink:href="#linear-gradient"/><linearGradient id="linear-gradient-6" x1="121.95" y1="201.38" x2="129.68" y2="201.38" xlink:href="#linear-gradient-2"/></defs><title>WE CAMPFINAL LOGO</title><line class="cls-1" x1="130.47" y1="31.2" x2="135.57" y2="66.46"/><line class="cls-1" x1="126.58" y1="3.95" x2="129.69" y2="25.71"/><line class="cls-1" x1="100.49" y1="30.81" x2="103.96" y2="38.98"/><line class="cls-1" x1="105.9" y1="44.48" x2="109.37" y2="52.65"/><line class="cls-1" x1="91.56" y1="9.77" x2="98.32" y2="25.71"/><line class="cls-1" x1="64.54" y1="31.67" x2="87.8" y2="60.47"/><line class="cls-1" x1="43.1" y1="54.48" x2="76.13" y2="79.48"/><line class="cls-1" x1="44.86" y1="91.67" x2="64.08" y2="99.16"/><line class="cls-1" x1="19.76" y1="81.89" x2="40.95" y2="90.14"/><line class="cls-1" x1="8.99" y1="114.84" x2="62.3" y2="121.45"/><line class="cls-1" x1="272.66" y1="115.8" x2="280.3" y2="114.84"/><line class="cls-1" x1="256.21" y1="117.87" x2="268.57" y2="116.31"/><line class="cls-1" x1="224.3" y1="121.84" x2="251.77" y2="118.42"/><path class="cls-1" d="M244.68,126.41" transform="translate(-4.17 -6.58)"/><path class="cls-1" d="M151.38,138.14" transform="translate(-4.17 -6.58)"/><line class="cls-1" x1="227.65" y1="99.84" x2="264.48" y2="85.32"/><line class="cls-1" x1="230.05" y1="69.59" x2="250.88" y2="54.1"/><line class="cls-1" x1="216.9" y1="79.37" x2="227.03" y2="71.83"/><line class="cls-1" x1="219.45" y1="38.75" x2="228.32" y2="27.54"/><line class="cls-1" x1="197.88" y1="66.02" x2="216.93" y2="41.95"/><line class="cls-1" x1="179.68" y1="51" x2="196.2" y2="11.9"/><line class="cls-1" x1="159.47" y1="16.5" x2="160.81" y2="6.71"/><line class="cls-1" x1="154.4" y1="53.81" x2="158.89" y2="20.79"/><line class="cls-1" x1="144.11" y1="27.57" x2="144.11" y2="0.69"/><line class="cls-1" x1="144.11" y1="58.62" x2="144.11" y2="31.74"/><line class="cls-1" x1="110.91" y1="10.94" x2="109.46" y2="5.48"/><line class="cls-1" x1="117.34" y1="35.05" x2="111.91" y2="14.69"/><line class="cls-1" x1="124.08" y1="59.27" x2="118.42" y2="38.98"/><line class="cls-1" x1="87.15" y1="37.3" x2="77.45" y2="20.85"/><line class="cls-1" x1="93.88" y1="48.5" x2="89.33" y2="40.92"/><line class="cls-1" x1="56.6" y1="47.08" x2="49.56" y2="40.13"/><line class="cls-1" x1="75.84" y1="66.06" x2="59.89" y2="50.32"/><line class="cls-1" x1="81.51" y1="71.53" x2="79.17" y2="69.29"/><line class="cls-1" x1="44.41" y1="75.95" x2="30.86" y2="68.26"/><line class="cls-1" x1="67.98" y1="89.31" x2="47.13" y2="77.47"/><line class="cls-1" x1="32.4" y1="103.82" x2="25.23" y2="101.93"/><line class="cls-1" x1="67.33" y1="112.4" x2="37.46" y2="105.08"/><line class="cls-1" x1="248.72" y1="105.59" x2="233.81" y2="109.5"/><line class="cls-1" x1="275.23" y1="99.22" x2="253.74" y2="104.29"/><line class="cls-1" x1="242.41" y1="78.03" x2="221.87" y2="89.53"/><line class="cls-1" x1="256.36" y1="70.44" x2="246.88" y2="75.54"/><line class="cls-1" x1="264.48" y1="66.06" x2="259.72" y2="68.63"/><line class="cls-1" x1="212.33" y1="66.13" x2="204.46" y2="73.82"/><line class="cls-1" x1="231.61" y1="47.64" x2="216.01" y2="62.56"/><line class="cls-1" x1="242.41" y1="37.3" x2="235.11" y2="44.28"/><line class="cls-1" x1="210.6" y1="23.73" x2="191.3" y2="55.13"/><line class="cls-1" x1="171.37" y1="33.36" x2="164.91" y2="57.41"/><line class="cls-1" x1="178.56" y1="5.48" x2="172.57" y2="29.04"/><line class="cls-1" x1="260.1" y1="132.1" x2="283.61" y2="132.1"/><line class="cls-1" x1="226.57" y1="132.1" x2="249.14" y2="132.1"/><line class="cls-1" x1="29.79" y1="132.1" x2="61.51" y2="132.1"/><line class="cls-1" x1="12.78" y1="132.1" x2="23.39" y2="132.1"/><line class="cls-2" x1="1.72" y1="144.64" x2="109.94" y2="144.64"/><line class="cls-2" x1="208.18" y1="144.64" x2="289.78" y2="144.64"/><path class="cls-3" d="M122.85,115.92a15.47,15.47,0,0,0,4.84-2.53l-7.95-13.32a13,13,0,0,0,4.14-2.15L116.47,85.5a12.06,12.06,0,0,0,4.23-2.05L104.83,56.83,88.95,83.45a12.06,12.06,0,0,0,4.23,2.05L85.77,97.92a13,13,0,0,0,4.14,2.15L82,113.39a15.47,15.47,0,0,0,4.84,2.53l-9.41,15.78s6.67,6.16,27.44,6.16,27.44-6.16,27.44-6.16Z" transform="translate(-4.17 -6.58)"/><path class="cls-4" d="M136.62,109.82a11.4,11.4,0,0,0,3.57-1.86l-5.86-9.82a9.61,9.61,0,0,0,3-1.58l-5.46-9.15A8.89,8.89,0,0,0,135,85.89l-11.7-19.62-11.7,19.62a8.89,8.89,0,0,0,3.12,1.51l-5.46,9.15a9.61,9.61,0,0,0,3,1.58L106.48,108a11.4,11.4,0,0,0,3.57,1.86l-6.94,11.63S108,126,123.33,126s20.22-4.54,20.22-4.54Z" transform="translate(-4.17 -6.58)"/><path class="cls-5" d="M115.29,143.9s5.89-2,8.48,2.38S122,86.67,122,86.67Z" transform="translate(-4.17 -6.58)"/><path class="cls-3" d="M121.87,83.31a266.17,266.17,0,0,0,68.57-19.59c-.35,9,25.63,43.37,33.94,45.89-3.46,7.56-5.89,21.55-5.89,21.55S170,144.6,154.42,156.07c-2.08-7.84,4.85-22.11,4.85-22.11S126,96.46,121.87,83.31Z" transform="translate(-4.17 -6.58)"/><path class="cls-6" d="M159.27,134a35.6,35.6,0,0,0-4.5,14.13c3.29-11.05,58.18-31.48,66.15-27.56.35-2.94,3.46-10.91,3.46-10.91S170.35,127.53,159.27,134Z" transform="translate(-4.17 -6.58)"/><path class="cls-6" d="M115.24,143.53c-6.12-1.79-20.33-6-22.83-7.22a37.12,37.12,0,0,0-6.27-19.88c9-3.65,28.83-18.1,36-30.63C122.74,106,116.19,138.9,115.24,143.53Z" transform="translate(-4.17 -6.58)"/><path class="cls-7" d="M121.65,87.58c.2,19.56-5.58,49.26-6.8,55.29-8-2.34-19.23-5.75-21.93-6.91a38.07,38.07,0,0,0-6-19.31c9-3.88,27-17.1,34.71-29.08m.91-3.71c-6.06,12.59-27.7,28.82-37.23,32.32,0,0,6.23,7.7,6.58,20.43,2.08,1.26,23.72,7.56,23.72,7.56s8.14-38.62,6.93-60.3Z" transform="translate(-4.17 -6.58)"/><path class="cls-6" d="M84.58,115.33c11.94-5.84,26.48-15.6,36-31.05a2.54,2.54,0,0,1,2.38-1.39h0a.66.66,0,0,1,.56.28,334,334,0,0,0,37.38,50l-1.27.89c-28.84-27.73-37.5-48.92-37.5-48.92a89.9,89.9,0,0,1-36.74,31.43Z" transform="translate(-4.17 -6.58)"/><path class="cls-6" d="M124.36,146.56C122.91,141,121,104.48,122.47,87c4.28,8.22,16.16,26.5,36.19,47.1-5.17,11.54-5.07,18.91-4.85,21.28Z" transform="translate(-4.17 -6.58)"/><path class="cls-7" d="M122.84,88.82c8.56,15.92,26.17,36,35.2,45.35-4.61,10.42-4.95,17.47-4.8,20.46l-28.45-8.49c-1.38-6.1-3.15-39.55-1.95-57.33m-.72-3.69c-1.82,16.93.26,56.95,1.82,61.84l30.48,9.09s-1.56-8,4.85-22.11c-21.82-22.39-33.77-41.7-37.14-48.83Z" transform="translate(-4.17 -6.58)"/><path class="cls-4" d="M115.29,143.9s-4,2.66-7.45,1.82c8.48-9.23,14.2-59,14.2-59S121.35,126.69,115.29,143.9Z" transform="translate(-4.17 -6.58)"/><path class="cls-8" d="M201.68,150.93a3.82,3.82,0,0,0-.53-.41l-.57-.36a3.47,3.47,0,0,1-.84-.92,8.09,8.09,0,0,1-1-2.71,10.48,10.48,0,0,1-.24-3.07c0-.51,0-1,.07-1.52s.12-1,.18-1.57.11-.9.15-1.34c.6-2.81,1.23-5.13,1.23-5.13h-.83l-4.06,0-3.15,0-3.35,0-4.18,0-2.21,0-4.38,0h-.76a15,15,0,0,1,.44,2.19c.2,1.21.37,2.43.54,3.65s.35,2.6.52,3.9l.21,1.66a4.17,4.17,0,0,1,0,2.4,1.57,1.57,0,0,1-.34.4,3.33,3.33,0,0,1-2.39.71,3.27,3.27,0,0,0-.84.13,3.32,3.32,0,0,0-1.51,1.05,1.35,1.35,0,0,0-.27.9.06.06,0,0,0,.12,0,1.26,1.26,0,0,1,.27-.44l.2-.2c0,.06,0,.11,0,.14a1.56,1.56,0,0,1,.79-.43,4.26,4.26,0,0,1,1.54,0,5.4,5.4,0,0,1,.95.32c.37.13.77.2,1.15.3a2.51,2.51,0,0,0,1.76,0,3.58,3.58,0,0,0,1.18-1.11,2,2,0,0,1,1.06-.72v.25a11.63,11.63,0,0,1-.24,2.14,5.28,5.28,0,0,1-.51,1.34,1.12,1.12,0,0,1-.58.6c-.44.13-.09.38.12.54l0,0c1.43,1,3-.46,3.82-1.68l.11-.15a2.81,2.81,0,0,1,1.26-.94,1.86,1.86,0,0,1,1.67.11,2,2,0,0,1,.52,1.85c0,.2,0,.4-.07.59s-.09.59-.11.84.15.61.44.49a.63.63,0,0,0,.24-.19,5.92,5.92,0,0,0,.5-.92c.26-.46.53-.91.76-1.38a5.63,5.63,0,0,0,.57-1.82c0-.09,0-.22,0-.35,0-.29.08-.61.34-.61a.58.58,0,0,1,.27.09,5.39,5.39,0,0,1,1.22.95,14.6,14.6,0,0,1,1,1.12l.17.21c.27.34.54.67.82,1s.34.37.52.55a6.51,6.51,0,0,0,.63.45,1,1,0,0,0-.07-.33c-.2-.71-.44-1.41-.6-2.13a4.87,4.87,0,0,1-.2-1.72,1.09,1.09,0,0,1,.12-.36c.22-.37.64-.28,1-.15.84.35,1.6.89,2.41,1.31a5.41,5.41,0,0,0,1.71.62,2.64,2.64,0,0,0,.87,0,.63.63,0,0,0,.35-.19C201.77,151.09,201.77,151,201.68,150.93Z" transform="translate(-4.17 -6.58)"/><path class="cls-9" d="M181.74,136.29l-.71-.39s-.27,6.75-.28,7.47a16,16,0,0,1-.25,3.67s-.48,1.46-1.1,1.61h0l0-.06c1-1.26.19-2.95.27-4.47,0-.64-.29-1.29-.32-1.88a41,41,0,0,0-1.32-8.13h-.76a15,15,0,0,1,.44,2.19c.2,1.21.37,2.43.54,3.65s.35,2.6.52,3.9l.21,1.66a4.17,4.17,0,0,1,0,2.4,1.57,1.57,0,0,1-.34.4,2.5,2.5,0,0,1-.38.29c-1.73-.05-4.73,0-4.55,2.3a2.25,2.25,0,0,1,2.39-1.6c.3.06.6.1.9.13h.32a8.89,8.89,0,0,1,1.15.35s2.93.78,3-3q0-.06,0-.13C181.44,142.83,181.74,136.29,181.74,136.29Z" transform="translate(-4.17 -6.58)"/><path class="cls-9" d="M184.92,140.18a5.73,5.73,0,0,1-1-4.6,3.76,3.76,0,0,1,.71-1.51l-2.21,0a19,19,0,0,0,.52,7.67,19.92,19.92,0,0,1,0,7.63,7.5,7.5,0,0,1-.53,2,5.28,5.28,0,0,1-.51,1.34,1.12,1.12,0,0,1-.58.6c-.44.13-.09.38.12.54l0,0a2.74,2.74,0,0,0,2.74-2.15c.44-2.1,1-4,1.37-6.07C185.92,143.79,186.05,141.83,184.92,140.18Z" transform="translate(-4.17 -6.58)"/><path class="cls-9" d="M188.79,134c0,.69-.08,1.36-.12,2.07-.18,2.55.21,5,.21,7.58,0,1.18.31,2.32.42,3.5a17,17,0,0,1-.48,6.49c0,.3-.09.59-.11.84s.15.61.44.49a.63.63,0,0,0,.24-.19,28.38,28.38,0,0,0,.67-4.71c-.15-3.5,1-6.77,1.32-10.25a5.77,5.77,0,0,1,.24-.83,41.49,41.49,0,0,0,.53-5Z" transform="translate(-4.17 -6.58)"/><path class="cls-10" d="M200.21,133.9c0-.77-1.83-1.45-4.17-1.56a24.31,24.31,0,0,0-6.47-1c-3.64-.09-6.83.48-8.52,1.4-2.13.07-3.77.63-3.78,1.36s1.42,1.29,3.37,1.5c1.53,1.11,4.93,1.94,8.84,2,5.38.13,9.84-1.18,9.84-2.91h0C200,134.53,200.21,134.23,200.21,133.9Z" transform="translate(-4.17 -6.58)"/><path class="cls-11" d="M200.53,150.83c-.49-.26-.83-.81-1.41-.87,0-.2-.22-.05-.17-.25a.43.43,0,0,1-.18-.05,15.71,15.71,0,0,1-1.43-2.1,6.07,6.07,0,0,1-.37-1.48,15.7,15.7,0,0,1-.29-3.25c-.09,0-.13-.25-.18-.1a14.11,14.11,0,0,0-1.18,7.2,1.09,1.09,0,0,1,.12-.36c.22-.37.64-.28,1-.15.84.35,1.6.89,2.41,1.31a5.41,5.41,0,0,0,1.71.62,2.64,2.64,0,0,0,.87,0,.63.63,0,0,0,.35-.19C201.47,150.76,200.93,151,200.53,150.83Z" transform="translate(-4.17 -6.58)"/><polygon class="cls-12" points="192.19 125.79 191.27 125.93 191.51 125.64 191.85 125.76 192.19 125.79"/><polygon class="cls-12" points="195.04 130.54 195.05 128.4 194.4 128.03 195.45 128.01 195.38 128.46 195.04 130.54"/><path class="cls-13" d="M195.23,136.37l1.53.41-.24,1,.48-1a4.39,4.39,0,0,0,1.89-1.2,4.43,4.43,0,0,1-2,1.06Z" transform="translate(-4.17 -6.58)"/><polygon class="cls-12" points="191.01 129.76 191.89 130.47 192.13 132.06 192.61 130.2 191.01 129.76"/><path class="cls-14" d="M181.47,135.26l-1.86.12s-1.8-.27-2.27-1c0,0,.22,1,2.21,1.22l.45,2.08-.1-1.94Z" transform="translate(-4.17 -6.58)"/><polygon class="cls-12" points="176.8 129.29 177.52 128.63 175.61 128.96 176.29 136.52 176.8 129.29"/><path class="cls-14" d="M190.86,137.9a12.81,12.81,0,0,0,4.13-.65,23.17,23.17,0,0,1-4.22.43l-.48-.63.22.63a25.8,25.8,0,0,1-9.34-1.72c1.28,1,5.24,1.67,5.24,1.67a26.89,26.89,0,0,0,4.16.27l.16,1.15Z" transform="translate(-4.17 -6.58)"/><path class="cls-14" d="M179.1,134.3a2.1,2.1,0,0,1,.51,0,.48.48,0,0,0,.39,0,.11.11,0,0,0,0-.14.41.41,0,0,0-.31-.25c-.1,0-.2,0-.29-.07s-.11-.06-.2,0a.1.1,0,0,0,0,.09v0a.06.06,0,0,0,.06.06l.37,0s.28.07.26.11l.08,0c-.14,0-.27-.05-.41-.08a2.33,2.33,0,0,0-.44,0c-.14,0-.14.23,0,.24Z" transform="translate(-4.17 -6.58)"/><path class="cls-14" d="M198,133a1.68,1.68,0,0,1,.57.35.51.51,0,0,1,.26.33c0,.13,0,.24,0,.35a.06.06,0,0,0,.1,0,.62.62,0,0,0-.2-.77,2,2,0,0,0-.35-.22A1,1,0,0,0,198,133s0,0,0,0Z" transform="translate(-4.17 -6.58)"/><path class="cls-14" d="M197.79,135.07a.79.79,0,0,1-.4.1,3.05,3.05,0,0,0-.56.16l-.54.19c-.12,0-.24,0-.33.15s0,.13.05.11a2,2,0,0,1,.47,0,4.11,4.11,0,0,0,.62-.16,1.73,1.73,0,0,0,.82-.33c.08-.09,0-.27-.13-.19Z" transform="translate(-4.17 -6.58)"/><path class="cls-14" d="M194.73,136.51c-.1,0-.16.12-.25.17s-.2.06-.3.1c-.26.11-.5.25-.77.34a7.31,7.31,0,0,1-1.68.28,0,0,0,0,0,0,.08c.3,0,.61,0,.91,0a2.59,2.59,0,0,0,.78-.16,5.3,5.3,0,0,0,1.33-.8s0,0,0,0Z" transform="translate(-4.17 -6.58)"/><path class="cls-14" d="M181.53,132.83a.29.29,0,0,0,.22.09,2,2,0,0,0,.52,0,6.88,6.88,0,0,0,1.19-.43c.39-.15.78-.3,1.17-.47a3.61,3.61,0,0,1,.63-.23,3.06,3.06,0,0,1,.79,0l.68,0c.25,0,.49,0,.74,0a6.87,6.87,0,0,1,1.37.18,3.42,3.42,0,0,0,1.13.11c.24,0,.48,0,.73-.07s.43,0,.65,0,.52,0,.79,0,.53,0,.79,0c.53,0,1.06.06,1.59.14,0,0,0,0,0,0a7.45,7.45,0,0,0-1.31-.17c-.45,0-.89-.07-1.33-.08-.22,0-.43,0-.65,0a6.16,6.16,0,0,0-.7,0,6.75,6.75,0,0,1-1.21.07c-.44,0-.86-.17-1.29-.23a9.18,9.18,0,0,0-1.34,0,8.64,8.64,0,0,0-1.29,0,6.25,6.25,0,0,0-1.16.44c-.23.09-.48.12-.72.2a5.71,5.71,0,0,0-.62.26,2,2,0,0,1-.71.2h-.31c-.11,0-.25.06-.34,0s0,0,0,0Z" transform="translate(-4.17 -6.58)"/><path class="cls-10" d="M186.61,135.11a.2.2,0,0,0,.2.08h0a.19.19,0,0,1-.2-.08Z" transform="translate(-4.17 -6.58)"/><path class="cls-15" d="M199.78,135.32c0,.24-2.23.31-2.48.31H180.58c-.24,0-2.48-.07-2.48-.31l2-2.39a.44.44,0,0,1,.44-.44h16.72a.44.44,0,0,1,.44.44Z" transform="translate(-4.17 -6.58)"/><polygon class="cls-16" points="181.56 128.07 177.06 128.07 177.79 126.84 181.56 126.84 181.56 128.07"/><polygon class="cls-16" points="187.99 128.07 192.49 128.07 191.76 126.84 187.99 126.84 187.99 128.07"/><polygon class="cls-16" points="193.08 128.07 194.38 128.07 193.36 126.84 192.21 126.84 193.08 128.07"/><polygon class="cls-16" points="176.47 128.07 175.17 128.07 176.19 126.84 177.34 126.84 176.47 128.07"/><rect class="cls-16" x="181.94" y="126.84" width="5.67" height="1.22"/><path class="cls-16" d="M199.9,135.92c0,.21-.05.38-.29.38H178.28c-.24,0-.29-.17-.29-.38v-.33c0-.21,0-.38.29-.38h21.32c.24,0,.29.17.29.38Z" transform="translate(-4.17 -6.58)"/><path class="cls-16" d="M198,132.58a.41.41,0,0,1-.44.38H180.37a.41.41,0,0,1-.44-.38v-9.74a.41.41,0,0,1,.44-.38h17.16a.41.41,0,0,1,.44.38Z" transform="translate(-4.17 -6.58)"/><path class="cls-17" d="M196.7,131.9a.35.35,0,0,1-.38.33H181.57a.35.35,0,0,1-.38-.33v-8.38a.35.35,0,0,1,.38-.33h14.76a.35.35,0,0,1,.38.33Z" transform="translate(-4.17 -6.58)"/><line class="cls-18" x1="1.4" y1="156.84" x2="293.73" y2="156.84"/><line class="cls-18" x1="1.4" y1="205.94" x2="293.73" y2="205.94"/><path class="cls-19" d="M53.86,202.58,42.72,174.85h6l3.46,8.59,4.66,11.61,2.2-5.52-5.93-14.69h6.09l3.46,8.59,4.61,11.61L72,183.44l3.46-8.59h6.09L70.37,202.58H64.28l-2.19-5.46-2.2,5.46Z" transform="translate(-4.17 -6.58)"/><path class="cls-19" d="M104.6,197.07v5.46H84.79V174.79h18.88v5.46H90.45v8.43h8.4v5.46h-8.4v2.92Z" transform="translate(-4.17 -6.58)"/><path class="cls-19" d="M186.34,195.63a14.44,14.44,0,0,1-12.46,6.95,13.93,13.93,0,1,1,0-27.84,14.39,14.39,0,0,1,12.35,6.84l-4.39,2.92a9.11,9.11,0,0,0-8-4.56,8.76,8.76,0,1,0,0,17.5,9,9,0,0,0,7.85-4.45Z" transform="translate(-4.17 -6.58)"/><path class="cls-19" d="M218.87,202.58h-5.65l-.93-2.23a14.47,14.47,0,0,1-7.79,2.23,14.15,14.15,0,0,1-7.74-2.23l-.93,2.23h-5.65l11.52-27.74h5.65Zm-8.61-7.05-4.06-9.76-1.7-4.08-5.71,13.84a9.13,9.13,0,0,0,5.71,2A9.28,9.28,0,0,0,210.26,195.53Z" transform="translate(-4.17 -6.58)"/><path class="cls-19" d="M254.1,174.85v27.74h-5.6V187.94l-5.93,12.41h-6.26l-5.93-12.46v14.69h-5.65V174.85h5.65l9.05,19,9.05-19h5.6Z" transform="translate(-4.17 -6.58)"/><path class="cls-19" d="M282.05,187.57a13,13,0,0,1-13.17,12.78H266.2v2.23h-5.65V174.85h8.34A13,13,0,0,1,282.05,187.57Zm-5.16,0a7.93,7.93,0,0,0-8-7.74H266.2v15.54h2.69A7.94,7.94,0,0,0,276.9,187.57Z" transform="translate(-4.17 -6.58)"/><path class="cls-20" d="M141,187.86q-.92-1.89-1.93-3.74c-.25-.46-.52-.92-.78-1.38a3.5,3.5,0,0,1-1.13,1.33s.72-8.11-10.2-11.45c0,0,2,2,.69,7.75s-6.06,16,8.19,18.33a7.8,7.8,0,0,0,5.61-2.23,13.93,13.93,0,0,0,1.9-3A54.87,54.87,0,0,0,141,187.86Z" transform="translate(-4.17 -6.58)"/><path class="cls-20" d="M128.56,180.38c1-4.33.07-6.55-.42-7.37-.37-.13-.75-.26-1.15-.38,0,0,2,2,.69,7.75s-6.06,16,8.19,18.33a6.1,6.1,0,0,0,.74,0C122.53,196.34,127.29,186.07,128.56,180.38Z" transform="translate(-4.17 -6.58)"/><path class="cls-20" d="M135.49,170.09s1.11,2.57-2.13,7.5-11.43,13,1.11,19.94a7.89,7.89,0,0,0,6.06-.21s10.92-5.93,3.41-15.65c0,0-1.37,2.22-3,2.57C141,184.24,144.54,176.88,135.49,170.09Z" transform="translate(-4.17 -6.58)"/><path class="cls-20" d="M133.92,178.31c3.24-4.93,2.13-7.5,2.13-7.5a19.06,19.06,0,0,1,3.3,3.1,18.21,18.21,0,0,0-3.86-3.83s1.11,2.57-2.13,7.5c-2.68,4.08-8.75,10.31-3.67,16.27C125.66,188.12,131.35,182.23,133.92,178.31Z" transform="translate(-4.17 -6.58)"/><path class="cls-21" d="M136.51,179.49s-.71,1.65,1.37,4.82,7.34,8.35-.71,12.8a5.06,5.06,0,0,1-3.89-.14s-7-3.81-2.19-10.05c0,0,.88,1.42,1.92,1.65C133,188.58,130.71,183.85,136.51,179.49Z" transform="translate(-4.17 -6.58)"/><path class="cls-22" d="M139.58,202a4.36,4.36,0,0,0-3.42-2.06,4.25,4.25,0,0,0-4,2.06A9.81,9.81,0,0,0,132,205h7.92A22.4,22.4,0,0,0,139.58,202Z" transform="translate(-4.17 -6.58)"/><path class="cls-23" d="M135.88,200.07a4.36,4.36,0,0,1,3.42,2.06,19.8,19.8,0,0,1,.35,2.9h.29a22.4,22.4,0,0,0-.36-3.08,4.36,4.36,0,0,0-3.42-2.06,4.09,4.09,0,0,0-2.7.73A4.1,4.1,0,0,1,135.88,200.07Z" transform="translate(-4.17 -6.58)"/><path class="cls-24" d="M139.94,205a4,4,0,0,0-7.92,0Z" transform="translate(-4.17 -6.58)"/><path class="cls-25" d="M136,201.79a3.92,3.92,0,0,1,3.91,3.25,4,4,0,0,0-7.92,0h.09A3.92,3.92,0,0,1,136,201.79Z" transform="translate(-4.17 -6.58)"/><path class="cls-22" d="M143.73,197.11s5,.82,6.23,4.51l-7.6,2.16-2-1.91S139.35,197.11,143.73,197.11Z" transform="translate(-4.17 -6.58)"/><path class="cls-26" d="M143.31,197.43s4.84.8,6.17,4.33l.49-.14c-1.22-3.69-6.23-4.51-6.23-4.51a3.44,3.44,0,0,0-2.44.81A3.79,3.79,0,0,1,143.31,197.43Z" transform="translate(-4.17 -6.58)"/><path class="cls-24" d="M150,201.62a4,4,0,0,0-4.88-2.47,3.82,3.82,0,0,0-2.72,4.63Z" transform="translate(-4.17 -6.58)"/><path class="cls-27" d="M145.31,199.42a4,4,0,0,1,4,1.09,4,4,0,0,0-4.27-1.36,3.82,3.82,0,0,0-2.72,4.63l.17,0A3.83,3.83,0,0,1,145.31,199.42Z" transform="translate(-4.17 -6.58)"/><path class="cls-28" d="M128.19,197.11s-5,.82-6.23,4.51l7.6,2.16,2-1.91S132.56,197.11,128.19,197.11Z" transform="translate(-4.17 -6.58)"/><path class="cls-29" d="M128.19,197.11l-.28.06c4,.21,3.06,4.75,3.06,4.75l-1.82,1.75.4.11,2-1.91S132.56,197.11,128.19,197.11Z" transform="translate(-4.17 -6.58)"/><path class="cls-24" d="M122,201.62a4,4,0,0,1,4.88-2.47,3.82,3.82,0,0,1,2.72,4.63Z" transform="translate(-4.17 -6.58)"/><path class="cls-30" d="M126.83,199.14a4,4,0,0,0-4.88,2.47l.07,0a4,4,0,0,1,4.72-2.08,3.83,3.83,0,0,1,2.81,4.22h0A3.82,3.82,0,0,0,126.83,199.14Z" transform="translate(-4.17 -6.58)"/><path class="cls-20" d="M124.89,179.69s2.08,2.06.25,6c-2,4.34.37,7.06.37,7.06s-5.92-1.65-3.87-5.91C123.33,183.36,124.52,183.3,124.89,179.69Z" transform="translate(-4.17 -6.58)"/><path class="cls-20" d="M122.15,187.1c1.62-3.36,2.78-3.55,3.2-6.77a3,3,0,0,0-.45-.65c-.37,3.62-1.56,3.68-3.24,7.18-1.48,3.07,1.19,4.79,2.79,5.51C122.85,191.54,120.81,189.87,122.15,187.1Z" transform="translate(-4.17 -6.58)"/></svg>